#!OML:ASF E:\Mandelcareful walks\Project 1\Capture day 1\Session 1\Subject1.ASF
:FULLY-SPECIFIED
:DEGREES
432
root 45.2132 15.8162 0.217455 189.868 -45.1914 178.04
lowerback 29.5128 4.18214 -4.66788
upperback 7.87382 2.4981 -1.98941
thorax -7.48545 0.693784 -0.342092
lowerneck -22.5586 14.7965 7.45855
upperneck 11.4113 22.0678 -21.9664
head 10.9727 8.30166 -4.94845
rclavicle 9.58142e-014 0
rhumerus -26.7762 13.7608 -83.1235
rradius 66.3257
rwrist -18.3059
rhand -11.3209 -16.7129
rfingers 7.12502
rthumb 14.7113 -46.1709
lclavicle 9.58142e-014 0
lhumerus -22.2623 -21.6428 78.5315
lradius 68.532
lwrist 22.6302
lhand -24.3815 -14.2931
lfingers 7.12502
lthumb 2.10894 15.6763
rfemur -38.6897 -3.45658 4.10908
rtibia 46.0671
rfoot -17.3885 3.6677
rtoes -24.5222
lfemur -33.5753 -2.82226 -16.997
ltibia 53.973
lfoot -22.5823 -6.06188
ltoes -1.63063
433
root 45.2769 15.8518 0.0468054 190.198 -46.5254 177.837
lowerback 29.4397 3.88901 -4.95995
upperback 7.82541 2.10458 -1.72855
thorax -7.51407 0.524625 0.255599
lowerneck -22.4584 14.8046 6.81406
upperneck 11.2689 22.2255 -21.9788
head 10.8556 8.35433 -4.82688
rclavicle 9.93923e-015 1.15295e-014
rhumerus -26.7699 14.2672 -82.7741
rradius 65.6949
rwrist -18.2029
rhand -10.9368 -16.306
rfingers 7.12502
rthumb 15.0814 -45.7366
lclavicle 9.93923e-015 1.15295e-014
lhumerus -22.0737 -20.5939 78.588
lradius 68.6423
lwrist 22.9296
lhand -25.2119 -14.5987
lfingers 7.12502
lthumb 1.30687 15.3771
rfemur -38.5313 -1.77902 3.38569
rtibia 44.8762
rfoot -16.8208 4.12431
rtoes -24.5254
lfemur -33.2451 -3.70987 -16.2821
ltibia 53.2503
lfoot -22.2941 -6.67651
ltoes -0.72805
434
root 45.345 15.885 -0.124099 190.929 -48.0633 177.395
lowerback 29.2766 3.80676 -4.64065
upperback 7.77076 2.11397 -1.94793
thorax -7.4779 0.541933 -0.173022
lowerneck -22.8062 14.4491 7.10631
upperneck 11.6082 21.6763 -21.827
head 10.9658 8.08924 -4.93389
rclavicle -4.17448e-015 1.76918e-014
rhumerus -27.0957 13.063 -82.8809
rradius 65.2965
rwrist -18.244
rhand -12.0075 -17.6319
rfingers 7.12502
rthumb 14.0497 -47.137
lclavicle -4.17448e-015 1.76918e-014
lhumerus -21.3698 -21.4795 78.1499
lradius 68.6847
lwrist 23.5311
lhand -26.2461 -14.5153
lfingers 7.12502
lthumb 0.308087 15.4642
rfemur -38.4963 -0.938143 2.816
rtibia 44.0598
rfoot -15.6703 4.43556
rtoes -22.4243
lfemur -33.2963 -4.81985 -15.6328
ltibia 52.5073
lfoot -21.9012 -7.23096
ltoes 0.570723
435
root 45.4011 15.9112 -0.28841 191.436 -50.0669 176.915
lowerback 29.442 3.33344 -3.98445
upperback 7.72839 1.71058 -2.03696
thorax -7.57049 0.360355 -0.513274
lowerneck -23.0488 14.2582 7.03061
upperneck 11.9522 21.4555 -21.6263
head 11.0596 7.96504 -4.89924
rclavicle 9.80008e-014 -4.1546e-014
rhumerus -27.656 12.8694 -82.889
rradius 65.3491
rwrist -18.5903
rhand -11.973 -17.7451
rfingers 7.12502
rthumb 14.083 -47.248
lclavicle 9.80008e-014 -4.1546e-014
lhumerus -20.4787 -22.0002 77.484
lradius 68.38
lwrist 24.5452
lhand -26.6717 -14.2197
lfingers 7.12502
lthumb -0.103002 15.76
rfemur -37.9209 -0.945367 2.5521
rtibia 43.6261
rfoot -13.8879 5.08982
rtoes -24.0083
lfemur -33.2697 -6.30307 -14.9643
ltibia 51.7825
lfoot -21.4333 -7.86277
ltoes 1.7991
436
root 45.4676 15.9393 -0.479605 191.513 -51.4493 176.606
lowerback 29.8017 3.20631 -4.05417
upperback 7.66758 1.53848 -1.86737
thorax -7.81433 0.28919 -0.233775
lowerneck -23.0847 14.2144 6.6534
upperneck 12.2775 21.5509 -21.5245
head 11.1414 7.96874 -4.79044
rclavicle -1.98785e-014 3.33958e-014
rhumerus -28.2202 13.2541 -82.7688
rradius 65.3173
rwrist -19.0109
rhand -12.0245 -17.8867
rfingers 7.12502
rthumb 14.0334 -47.393
lclavicle -1.98785e-014 3.33958e-014
lhumerus -20.7009 -21.6739 77.555
lradius 68.3973
lwrist 25.0705
lhand -26.6784 -14.4096
lfingers 7.12502
lthumb -0.109438 15.5702
rfemur -37.1632 -0.487974 2.73369
rtibia 43.5531
rfoot -12.0655 5.70106
rtoes -22.8654
lfemur -32.7087 -7.00403 -14.2332
ltibia 51.0614
lfoot -21.1773 -8.69723
ltoes 2.21218
437
root 45.5378 15.9574 -0.673483 191.9 -52.9483 176.238
lowerback 29.8759 3.11691 -3.80647
upperback 7.68313 1.50809 -1.88345
thorax -7.82408 0.27925 -0.385555
lowerneck -23.6335 13.9401 6.37473
upperneck 12.7253 21.2758 -21.2599
head 11.2902 7.78345 -4.70602
rclavicle -4.94974e-014 -5.96354e-015
rhumerus -28.4302 12.6517 -82.7807
rradius 64.9092
rwrist -19.4022
rhand -9.01692 -18.7314
rfingers 7.12502
rthumb 16.9302 -48.0135
lclavicle -4.94974e-014 -5.96354e-015
lhumerus -20.8296 -21.9233 77.49
lradius 68.4786
lwrist 25.454
lhand -26.6664 -14.696
lfingers 7.12502
lthumb -0.0978884 15.2837
rfemur -36.5705 -0.51503 3.15892
rtibia 43.7622
rfoot -11.5653 5.86834
rtoes -16.3625
lfemur -32.5298 -7.73934 -13.4851
ltibia 50.4246
lfoot -20.8887 -9.28367
ltoes 1.39913
